<svg width="25.111572" height="26.000000" viewBox="0 0 25.1116 26" fill="none" xmlns="http://www.w3.org/2000/svg" xmlns:xlink="http://www.w3.org/1999/xlink"><mask id="mask_0_665" fill="white"><path id="Combined Shape" d="M13 0C5.82031 0 0 5.8203 0 13C0 20.1797 5.82031 26 13 26C18.5098 26 23.2191 22.5722 25.1116 17.7328C23.1986 19.7454 20.4958 21 17.5 21C11.701 21 7 16.299 7 10.5C7 5.43021 10.5931 1.19962 15.3716 0.215828C14.6027 0.0740814 13.81 0 13 0Z" clip-rule="evenodd" fill="" fill-opacity="1.000000" fill-rule="evenodd"/></mask><path id="Combined Shape" d="M13 0C5.82031 0 0 5.8203 0 13C0 20.1797 5.82031 26 13 26C18.5098 26 23.2191 22.5722 25.1116 17.7328C23.1986 19.7454 20.4958 21 17.5 21C11.701 21 7 16.299 7 10.5C7 5.43021 10.5931 1.19962 15.3716 0.215828C14.6027 0.0740814 13.81 0 13 0Z" clip-rule="evenodd" fill="#FFFFFF" fill-opacity="1.000000" fill-rule="evenodd" mask="url(#mask_0_665)"/><path id="Combined Shape" d="" fill="#979797" fill-opacity="0.000000" fill-rule="nonzero"/></svg>
